<?xml version="1.0" standalone="no"?>
<!DOCTYPE svg PUBLIC "-//W3C//DTD SVG 20010904//EN"
 "http://www.w3.org/TR/2001/REC-SVG-20010904/DTD/svg10.dtd">
<svg version="1.0" xmlns="http://www.w3.org/2000/svg"
 width="500.000000pt" height="500.000000pt" viewBox="0 0 500.000000 500.000000"
 preserveAspectRatio="xMidYMid meet">

<g transform="translate(0.000000,500.000000) scale(0.100000,-0.100000)"
fill="#000000" stroke="none">
<path d="M1937 3863 c-4 -3 -7 -19 -7 -35 0 -24 -4 -28 -30 -28 l-30 0 0 -100
0 -100 30 0 c28 0 30 -3 30 -35 l0 -35 -130 0 -130 0 0 -30 0 -30 -99 0 -100
0 -3 -32 c-3 -33 -3 -33 -68 -38 -65 -5 -65 -5 -68 -37 -3 -29 -7 -33 -33 -33
-26 0 -29 -3 -29 -30 0 -28 -3 -30 -35 -30 l-34 0 -3 -67 -3 -68 -32 -3 c-29
-3 -33 -7 -33 -33 0 -25 -4 -29 -29 -29 -26 0 -30 -4 -33 -32 -3 -29 -7 -33
-35 -36 l-33 -3 0 65 0 65 -32 3 -33 3 -3 68 c-3 67 -3 67 -32 67 -29 0 -29 1
-32 63 -3 62 -3 62 -35 65 -28 3 -32 7 -35 35 -3 32 -3 32 -65 35 -62 3 -63 3
-63 32 l0 30 -200 0 -200 0 0 -30 c0 -29 0 -29 -67 -32 l-68 -3 -3 -67 c-3
-68 -3 -68 -32 -68 -29 0 -29 -1 -32 -62 -3 -63 -3 -63 -35 -66 l-33 -3 0
-134 0 -134 33 -3 c32 -3 32 -3 35 -65 3 -62 3 -63 32 -63 25 0 29 -4 32 -32
l3 -33 68 -3 c67 -3 67 -3 67 -32 0 -29 1 -29 63 -32 62 -3 62 -3 65 -35 l3
-33 64 0 64 0 3 -32 c3 -29 7 -33 36 -36 28 -3 32 -7 32 -32 0 -25 -4 -29 -32
-32 -33 -3 -33 -3 -38 -68 -5 -62 -6 -65 -32 -68 -24 -3 -28 -8 -28 -33 0 -25
4 -29 30 -29 29 0 29 0 32 -67 l3 -68 67 -3 c68 -3 68 -3 68 -32 0 -27 3 -30
30 -30 27 0 30 3 30 30 0 29 0 29 67 32 l68 3 3 33 c3 28 7 32 32 32 25 0 29
4 32 33 3 28 6 32 33 32 30 0 30 -1 35 -65 5 -65 5 -65 38 -68 28 -3 32 -7 32
-33 0 -25 4 -29 29 -29 26 0 30 -4 33 -32 3 -29 7 -33 36 -36 29 -3 32 -6 32
-38 l0 -34 65 0 65 0 0 -30 c0 -29 0 -29 68 -32 l67 -3 3 -32 3 -33 65 0 64 0
0 -35 c0 -33 -2 -35 -35 -35 -32 0 -35 -2 -35 -30 0 -27 -3 -30 -29 -30 -26 0
-30 -4 -33 -32 -3 -33 -3 -33 -68 -38 -65 -5 -65 -5 -68 -37 -3 -29 -7 -33
-33 -33 l-29 0 0 -100 0 -100 30 0 c27 0 30 -3 30 -30 0 -29 0 -29 68 -32 l67
-3 3 -33 3 -32 64 0 64 0 3 -32 3 -33 430 0 430 0 3 33 3 32 64 0 64 0 3 32
c3 33 3 33 65 36 59 3 62 4 65 30 2 21 9 28 33 32 l30 5 3 97 3 97 -33 3 c-29
3 -33 7 -36 36 l-3 32 -64 0 -64 0 -3 32 c-3 28 -8 34 -33 38 -24 4 -30 10
-30 30 0 20 6 26 30 30 25 4 31 10 33 37 l3 32 132 3 132 3 3 33 3 32 100 0
99 0 0 30 c0 29 1 29 63 32 62 3 62 3 65 36 l3 32 64 0 64 0 3 33 c3 28 7 32
36 35 28 3 32 7 32 33 l0 29 64 0 65 0 3 33 c3 28 7 32 35 35 28 3 32 7 35 35
3 28 7 32 36 35 28 3 32 7 32 32 0 24 5 29 27 32 22 2 29 9 33 33 5 29 7 30
70 35 63 5 65 6 70 35 4 24 11 31 33 33 22 3 27 8 27 32 0 25 4 29 33 32 28 3
32 7 35 36 l3 32 64 0 64 0 3 33 c3 28 7 32 36 35 28 3 32 7 32 32 0 29 1 29
62 32 61 3 63 4 68 33 5 29 7 30 70 35 65 5 65 5 68 38 3 28 7 32 33 32 26 0
29 3 29 30 l0 30 99 0 100 0 3 33 c3 32 3 32 68 37 65 5 65 5 68 38 l3 32 65
0 64 0 0 29 c0 26 -4 30 -32 33 -29 3 -33 7 -36 36 l-3 32 -64 0 -64 0 -3 33
-3 32 -162 3 -162 2 -3 -32 -3 -33 -132 -3 -132 -3 -3 -32 -3 -32 -197 -3
-198 -2 0 -30 0 -30 -300 0 -300 0 0 30 0 29 -97 3 -98 3 -3 33 -3 32 -64 0
-64 0 -3 33 c-3 28 -7 32 -35 35 -29 3 -33 7 -33 32 0 25 -4 29 -32 32 -29 3
-33 7 -36 36 l-3 32 -64 0 -64 0 -3 33 -3 32 -130 5 -130 5 -3 27 -3 27 -97 3
-97 3 0 30 c0 27 4 30 33 33 l32 3 0 99 0 99 -32 3 c-29 3 -33 7 -36 36 l-3
32 -93 0 c-51 0 -96 -3 -99 -7z m-1269 -630 l3 -33 64 0 64 0 3 -32 c3 -29 7
-33 36 -36 l32 -3 0 -65 0 -64 29 0 c26 0 30 -4 33 -32 3 -29 7 -33 36 -36 28
-3 32 -7 32 -32 0 -25 -4 -29 -32 -32 l-33 -3 -3 -97 -3 -98 -64 0 -65 0 0 29
c0 26 -4 30 -32 33 -29 3 -33 7 -36 36 l-3 32 -64 0 -64 0 -3 33 c-3 32 -3 32
-65 35 -62 3 -63 3 -63 32 0 25 -4 29 -32 32 -29 3 -33 7 -36 35 -3 28 -7 32
-35 35 l-32 3 -3 119 c-1 66 0 126 2 133 4 11 40 13 168 11 l163 -3 3 -32z
m2193 -170 c8 -49 3 -58 -28 -61 -29 -3 -33 -7 -33 -33 0 -29 -1 -29 -58 -29
-63 0 -82 -11 -82 -47 0 -21 -4 -22 -97 -25 l-98 -3 -3 -33 -3 -32 -462 2
-462 3 -3 32 -3 32 -97 3 -97 3 -5 30 c-5 29 -7 30 -68 33 -62 3 -63 3 -60 30
l3 27 98 3 97 3 0 -35 0 -35 133 -3 132 -3 3 -27 3 -28 265 0 264 0 0 30 c0
27 3 30 29 30 25 0 30 -4 33 -27 3 -25 7 -28 38 -28 31 0 35 3 38 28 l3 27
129 0 129 0 3 33 c3 32 3 32 68 37 65 5 65 5 68 38 l3 32 60 0 c32 0 60 -3 60
-7z"/>
</g>
</svg>
